<svg xmlns="http://www.w3.org/2000/svg" width="1200" height="1200" viewBox="0 0 1200 1200" role="img" aria-label="Root Logos work 53 first frame"><rect width="1200" height="1200" fill="black"/><g><line x1="543.326036" y1="915.991784" x2="411.157148" y2="626.216148" stroke="white" stroke-opacity="0.453714" stroke-width="1.47391"/><line x1="411.157148" y1="626.216148" x2="612.524773" y2="847.415904" stroke="white" stroke-opacity="0.427429" stroke-width="1.397819"/><line x1="612.524773" y1="847.415904" x2="672.5836" y2="836.47395" stroke="white" stroke-opacity="0.427429" stroke-width="1.397819"/><line x1="672.5836" y1="836.47395" x2="575.373258" y2="844.468112" stroke="white" stroke-opacity="0.41077" stroke-width="1.349597"/><line x1="575.373258" y1="844.468112" x2="591.371829" y2="362.955072" stroke="white" stroke-opacity="0.394111" stroke-width="1.301374"/><line x1="411.157148" y1="626.216148" x2="716.116785" y2="734.867514" stroke="white" stroke-opacity="0.394111" stroke-width="1.301374"/><line x1="716.116785" y1="734.867514" x2="451.859687" y2="379.313807" stroke="white" stroke-opacity="0.394111" stroke-width="1.301374"/><line x1="451.859687" y1="379.313807" x2="498.781512" y2="795.867727" stroke="white" stroke-opacity="0.394111" stroke-width="1.301374"/><line x1="498.781512" y1="795.867727" x2="703.89739" y2="508.825042" stroke="white" stroke-opacity="0.373722" stroke-width="1.242354"/><line x1="703.89739" y1="508.825042" x2="664.273985" y2="497.485553" stroke="white" stroke-opacity="0.353333" stroke-width="1.183334"/><line x1="716.116785" y1="734.867514" x2="399.142305" y2="509.499303" stroke="white" stroke-opacity="0.353333" stroke-width="1.183334"/><line x1="399.142305" y1="509.499303" x2="610.003709" y2="553.652968" stroke="white" stroke-opacity="0.353333" stroke-width="1.183334"/><line x1="610.003709" y1="553.652968" x2="731.837539" y2="465.280458" stroke="white" stroke-opacity="0.353333" stroke-width="1.183334"/><line x1="731.837539" y1="465.280458" x2="615.392494" y2="359.906985" stroke="white" stroke-opacity="0.353333" stroke-width="1.183334"/><line x1="615.392494" y1="359.906985" x2="625.159436" y2="642.164491" stroke="white" stroke-opacity="0.327048" stroke-width="1.107243"/><line x1="399.142305" y1="509.499303" x2="653.811942" y2="589.849973" stroke="white" stroke-opacity="0.300762" stroke-width="1.031153"/><line x1="653.811942" y1="589.849973" x2="739.559154" y2="664.525459" stroke="white" stroke-opacity="0.300762" stroke-width="1.031153"/><line x1="739.559154" y1="664.525459" x2="585.221489" y2="438.540478" stroke="white" stroke-opacity="0.300762" stroke-width="1.031153"/><line x1="585.221489" y1="438.540478" x2="579.341471" y2="718.723495" stroke="white" stroke-opacity="0.300762" stroke-width="1.031153"/><line x1="579.341471" y1="718.723495" x2="626.34449" y2="724.785495" stroke="white" stroke-opacity="0.300762" stroke-width="1.031153"/><line x1="653.811942" y1="589.849973" x2="442.131909" y2="759.566272" stroke="white" stroke-opacity="0.300762" stroke-width="1.031153"/><line x1="442.131909" y1="759.566272" x2="359.002212" y2="563.094845" stroke="white" stroke-opacity="0.300762" stroke-width="1.031153"/><line x1="359.002212" y1="563.094845" x2="530.513166" y2="400.482325" stroke="white" stroke-opacity="0.300762" stroke-width="1.031153"/><line x1="530.513166" y1="400.482325" x2="696.181832" y2="770.051918" stroke="white" stroke-opacity="0.300762" stroke-width="1.031153"/><line x1="696.181832" y1="770.051918" x2="805.652125" y2="689.241216" stroke="white" stroke-opacity="0.300762" stroke-width="1.031153"/><line x1="442.131909" y1="759.566272" x2="584.008109" y2="613.374039" stroke="white" stroke-opacity="0.300762" stroke-width="1.031153"/><line x1="584.008109" y1="613.374039" x2="774.209802" y2="639.53117" stroke="white" stroke-opacity="0.300762" stroke-width="1.031153"/><line x1="774.209802" y1="639.53117" x2="632.225858" y2="838.935179" stroke="white" stroke-opacity="0.300762" stroke-width="1.031153"/><line x1="632.225858" y1="838.935179" x2="395.081987" y2="621.558303" stroke="white" stroke-opacity="0.300762" stroke-width="1.031153"/><line x1="395.081987" y1="621.558303" x2="760.14751" y2="458.706831" stroke="white" stroke-opacity="0.263714" stroke-width="0.92391"/><line x1="584.008109" y1="613.374039" x2="625.208284" y2="550.594457" stroke="white" stroke-opacity="0.226667" stroke-width="0.816666"/><line x1="625.208284" y1="550.594457" x2="771.647222" y2="642.835831" stroke="white" stroke-opacity="0.226667" stroke-width="0.816666"/><line x1="771.647222" y1="642.835831" x2="597.205183" y2="753.007141" stroke="white" stroke-opacity="0.226667" stroke-width="0.816666"/><line x1="597.205183" y1="753.007141" x2="574.405574" y2="616.687168" stroke="white" stroke-opacity="0.226667" stroke-width="0.816666"/><line x1="574.405574" y1="616.687168" x2="612.927159" y2="746.086505" stroke="white" stroke-opacity="0.226667" stroke-width="0.816666"/><line x1="625.208284" y1="550.594457" x2="659.184866" y2="446.726179" stroke="white" stroke-opacity="0.226667" stroke-width="0.816666"/><line x1="659.184866" y1="446.726179" x2="590.24046" y2="431.17665" stroke="white" stroke-opacity="0.226667" stroke-width="0.816666"/><line x1="590.24046" y1="431.17665" x2="738.423283" y2="512.565776" stroke="white" stroke-opacity="0.226667" stroke-width="0.816666"/><line x1="738.423283" y1="512.565776" x2="473.056891" y2="711.204981" stroke="white" stroke-opacity="0.226667" stroke-width="0.816666"/><line x1="473.056891" y1="711.204981" x2="442.615231" y2="707.800628" stroke="white" stroke-opacity="0.226667" stroke-width="0.816666"/><line x1="659.184866" y1="446.726179" x2="583.95562" y2="460.646298" stroke="white" stroke-opacity="0.226667" stroke-width="0.816666"/><line x1="583.95562" y1="460.646298" x2="795.995361" y2="649.458388" stroke="white" stroke-opacity="0.226667" stroke-width="0.816666"/><line x1="795.995361" y1="649.458388" x2="430.408793" y2="616.710994" stroke="white" stroke-opacity="0.226667" stroke-width="0.816666"/><line x1="430.408793" y1="616.710994" x2="567.017262" y2="793.772351" stroke="white" stroke-opacity="0.226667" stroke-width="0.816666"/><line x1="567.017262" y1="793.772351" x2="599.635151" y2="391.930348" stroke="white" stroke-opacity="0.226667" stroke-width="0.816666"/><line x1="583.95562" y1="460.646298" x2="417.732411" y2="629.5858" stroke="white" stroke-opacity="0.226667" stroke-width="0.816666"/><line x1="417.732411" y1="629.5858" x2="480.061938" y2="600.853197" stroke="white" stroke-opacity="0.226667" stroke-width="0.816666"/><line x1="480.061938" y1="600.853197" x2="570.293167" y2="770.534926" stroke="white" stroke-opacity="0.226667" stroke-width="0.816666"/><line x1="570.293167" y1="770.534926" x2="598.882371" y2="410.071106" stroke="white" stroke-opacity="0.226667" stroke-width="0.816666"/><line x1="598.882371" y1="410.071106" x2="585.089131" y2="731.867174" stroke="white" stroke-opacity="0.226667" stroke-width="0.816666"/><line x1="417.732411" y1="629.5858" x2="580.152216" y2="439.469767" stroke="white" stroke-opacity="0.226667" stroke-width="0.816666"/><line x1="580.152216" y1="439.469767" x2="762.972573" y2="527.226038" stroke="white" stroke-opacity="0.226667" stroke-width="0.816666"/><line x1="762.972573" y1="527.226038" x2="648.564096" y2="725.691601" stroke="white" stroke-opacity="0.226667" stroke-width="0.816666"/><line x1="648.564096" y1="725.691601" x2="487.501065" y2="474.756506" stroke="white" stroke-opacity="0.226667" stroke-width="0.816666"/><line x1="487.501065" y1="474.756506" x2="731.749502" y2="470.998115" stroke="white" stroke-opacity="0.226667" stroke-width="0.816666"/><line x1="580.152216" y1="439.469767" x2="730.720354" y2="540.168496" stroke="white" stroke-opacity="0.226667" stroke-width="0.816666"/><line x1="730.720354" y1="540.168496" x2="600.234869" y2="716.956377" stroke="white" stroke-opacity="0.226667" stroke-width="0.816666"/><line x1="600.234869" y1="716.956377" x2="750.812479" y2="739.566343" stroke="white" stroke-opacity="0.226667" stroke-width="0.816666"/><line x1="750.812479" y1="739.566343" x2="621.339902" y2="746.110719" stroke="white" stroke-opacity="0.226667" stroke-width="0.816666"/><line x1="621.339902" y1="746.110719" x2="678.709423" y2="698.059346" stroke="white" stroke-opacity="0.226667" stroke-width="0.816666"/><line x1="730.720354" y1="540.168496" x2="620.54701" y2="817.406354" stroke="white" stroke-opacity="0.226667" stroke-width="0.816666"/><line x1="620.54701" y1="817.406354" x2="578.506122" y2="750.955796" stroke="white" stroke-opacity="0.226667" stroke-width="0.816666"/><line x1="578.506122" y1="750.955796" x2="656.175114" y2="596.492081" stroke="white" stroke-opacity="0.226667" stroke-width="0.816666"/><line x1="656.175114" y1="596.492081" x2="726.217433" y2="493.940247" stroke="white" stroke-opacity="0.226667" stroke-width="0.816666"/><line x1="726.217433" y1="493.940247" x2="624.058003" y2="390.846826" stroke="white" stroke-opacity="0.226667" stroke-width="0.816666"/><line x1="620.54701" y1="817.406354" x2="783.567222" y2="513.100951" stroke="white" stroke-opacity="0.226667" stroke-width="0.816666"/><line x1="783.567222" y1="513.100951" x2="586.849137" y2="497.662908" stroke="white" stroke-opacity="0.226667" stroke-width="0.816666"/><line x1="586.849137" y1="497.662908" x2="385.545117" y2="601.615878" stroke="white" stroke-opacity="0.226667" stroke-width="0.816666"/><line x1="385.545117" y1="601.615878" x2="663.569474" y2="446.790712" stroke="white" stroke-opacity="0.226667" stroke-width="0.816666"/><line x1="663.569474" y1="446.790712" x2="478.989346" y2="720.057229" stroke="white" stroke-opacity="0.226667" stroke-width="0.816666"/><line x1="783.567222" y1="513.100951" x2="425.812104" y2="585.402134" stroke="white" stroke-opacity="0.226667" stroke-width="0.816666"/><line x1="425.812104" y1="585.402134" x2="795.22125" y2="655.36125" stroke="white" stroke-opacity="0.312619" stroke-width="1.065476"/><line x1="795.22125" y1="655.36125" x2="661.13703" y2="635.632667" stroke="white" stroke-opacity="0.371429" stroke-width="1.235715"/><line x1="661.13703" y1="635.632667" x2="355.135285" y2="549.783304" stroke="white" stroke-opacity="0.330714" stroke-width="1.117857"/><line x1="355.135285" y1="549.783304" x2="432.10436" y2="600" stroke="white" stroke-opacity="0.330714" stroke-width="1.117857"/><line x1="425.812104" y1="585.402134" x2="647.949147" y2="646.131564" stroke="white" stroke-opacity="0.357857" stroke-width="1.196428"/><circle cx="610.003709" cy="553.652968" r="5.387308" fill="white" fill-opacity="0.813333"/><circle cx="625.159436" cy="642.164491" r="4.644272" fill="white" fill-opacity="0.744161"/><circle cx="664.273985" cy="497.485553" r="5.444031" fill="white" fill-opacity="0.813333"/><circle cx="584.008109" cy="613.374039" r="4.664338" fill="white" fill-opacity="0.744161"/><circle cx="653.811942" cy="589.849973" r="4.673951" fill="white" fill-opacity="0.744161"/><circle cx="656.175114" cy="596.492081" r="3.600151" fill="white" fill-opacity="0.646667"/><circle cx="647.949147" cy="646.131564" r="5.83298" fill="white" fill-opacity="0.96"/><circle cx="625.208284" cy="550.594457" r="3.640668" fill="white" fill-opacity="0.646667"/><circle cx="579.341471" cy="718.723495" r="4.873185" fill="white" fill-opacity="0.744161"/><circle cx="600.234869" cy="716.956377" r="3.708043" fill="white" fill-opacity="0.646667"/><circle cx="586.849137" cy="497.662908" r="3.721005" fill="white" fill-opacity="0.646667"/><circle cx="703.89739" cy="508.825042" r="5.736095" fill="white" fill-opacity="0.813333"/><circle cx="739.559154" cy="664.525459" r="4.943667" fill="white" fill-opacity="0.744161"/><circle cx="411.157148" cy="626.216148" r="7.007209" fill="white" fill-opacity="0.910827"/><circle cx="626.34449" cy="724.785495" r="4.995283" fill="white" fill-opacity="0.744161"/><circle cx="432.10436" cy="600" r="5.702005" fill="white" fill-opacity="0.96"/><circle cx="583.95562" cy="460.646298" r="3.802766" fill="white" fill-opacity="0.646667"/><circle cx="585.221489" cy="438.540478" r="5.002848" fill="white" fill-opacity="0.744161"/><circle cx="480.061938" cy="600.853197" r="3.820764" fill="white" fill-opacity="0.646667"/><circle cx="585.089131" cy="731.867174" r="3.827446" fill="white" fill-opacity="0.646667"/><circle cx="672.5836" cy="836.47395" r="7.108124" fill="white" fill-opacity="0.910827"/><circle cx="612.927159" cy="746.086505" r="3.850987" fill="white" fill-opacity="0.646667"/><circle cx="731.837539" cy="465.280458" r="6.011517" fill="white" fill-opacity="0.813333"/><circle cx="730.720354" cy="540.168496" r="3.938801" fill="white" fill-opacity="0.646667"/><circle cx="696.181832" cy="770.051918" r="5.206767" fill="white" fill-opacity="0.744161"/><circle cx="659.184866" cy="446.726179" r="4.003192" fill="white" fill-opacity="0.646667"/><circle cx="648.564096" cy="725.691601" r="4.004933" fill="white" fill-opacity="0.646667"/><circle cx="417.732411" cy="629.5858" r="4.066245" fill="white" fill-opacity="0.646667"/><circle cx="530.513166" cy="400.482325" r="5.351904" fill="white" fill-opacity="0.744161"/><circle cx="567.017262" cy="793.772351" r="4.192869" fill="white" fill-opacity="0.646667"/><circle cx="597.205183" cy="753.007141" r="4.21376" fill="white" fill-opacity="0.646667"/><circle cx="795.995361" cy="649.458388" r="4.245622" fill="white" fill-opacity="0.646667"/><circle cx="731.749502" cy="470.998115" r="4.261401" fill="white" fill-opacity="0.646667"/><circle cx="783.567222" cy="513.100951" r="4.287128" fill="white" fill-opacity="0.646667"/><circle cx="395.081987" cy="621.558303" r="5.64357" fill="white" fill-opacity="0.744161"/><circle cx="570.293167" cy="770.534926" r="4.297626" fill="white" fill-opacity="0.646667"/><circle cx="599.635151" cy="391.930348" r="4.306373" fill="white" fill-opacity="0.646667"/><circle cx="663.569474" cy="446.790712" r="4.309561" fill="white" fill-opacity="0.646667"/><circle cx="795.22125" cy="655.36125" r="7.499998" fill="white" fill-opacity="0.96"/><circle cx="473.056891" cy="711.204981" r="4.354964" fill="white" fill-opacity="0.646667"/><circle cx="760.14751" cy="458.706831" r="4.361923" fill="white" fill-opacity="0.646667"/><circle cx="598.882371" cy="410.071106" r="4.363715" fill="white" fill-opacity="0.646667"/><circle cx="478.989346" cy="720.057229" r="4.373644" fill="white" fill-opacity="0.646667"/><circle cx="590.24046" cy="431.17665" r="4.415159" fill="white" fill-opacity="0.646667"/><circle cx="624.058003" cy="390.846826" r="4.441682" fill="white" fill-opacity="0.646667"/><circle cx="805.652125" cy="689.241216" r="5.897307" fill="white" fill-opacity="0.744161"/><circle cx="487.501065" cy="474.756506" r="4.499185" fill="white" fill-opacity="0.646667"/><circle cx="620.54701" cy="817.406354" r="4.5257" fill="white" fill-opacity="0.646667"/><circle cx="430.408793" cy="616.710994" r="4.565304" fill="white" fill-opacity="0.646667"/><circle cx="726.217433" cy="493.940247" r="4.565581" fill="white" fill-opacity="0.646667"/><circle cx="442.615231" cy="707.800628" r="4.596667" fill="white" fill-opacity="0.646667"/><circle cx="615.392494" cy="359.906985" r="7.080291" fill="white" fill-opacity="0.813333"/><circle cx="632.225858" cy="838.935179" r="6.052086" fill="white" fill-opacity="0.744161"/><circle cx="442.131909" cy="759.566272" r="6.072465" fill="white" fill-opacity="0.744161"/><circle cx="425.812104" cy="585.402134" r="4.629581" fill="white" fill-opacity="0.646667"/><circle cx="575.373258" cy="844.468112" r="8.006797" fill="white" fill-opacity="0.866988"/><circle cx="399.142305" cy="509.499303" r="7.220827" fill="white" fill-opacity="0.813333"/><circle cx="738.423283" cy="512.565776" r="4.697306" fill="white" fill-opacity="0.646667"/><circle cx="762.972573" cy="527.226038" r="4.709315" fill="white" fill-opacity="0.646667"/><circle cx="385.545117" cy="601.615878" r="4.738041" fill="white" fill-opacity="0.646667"/><circle cx="359.002212" cy="563.094845" r="6.335596" fill="white" fill-opacity="0.744161"/><circle cx="543.326036" cy="915.991784" r="10.00753" fill="white" fill-opacity="0.98"/><circle cx="621.339902" cy="746.110719" r="4.829668" fill="white" fill-opacity="0.646667"/><circle cx="750.812479" cy="739.566343" r="4.896871" fill="white" fill-opacity="0.646667"/><circle cx="578.506122" cy="750.955796" r="4.917726" fill="white" fill-opacity="0.646667"/><circle cx="591.371829" cy="362.955072" r="8.508859" fill="white" fill-opacity="0.866988"/><circle cx="580.152216" cy="439.469767" r="5.015571" fill="white" fill-opacity="0.646667"/><circle cx="612.524773" cy="847.415904" r="9.536695" fill="white" fill-opacity="0.910827"/><circle cx="774.209802" cy="639.53117" r="6.76663" fill="white" fill-opacity="0.744161"/><circle cx="771.647222" cy="642.835831" r="5.165197" fill="white" fill-opacity="0.646667"/><circle cx="678.709423" cy="698.059346" r="5.166652" fill="white" fill-opacity="0.646667"/><circle cx="355.135285" cy="549.783304" r="7.256588" fill="white" fill-opacity="0.96"/><circle cx="574.405574" cy="616.687168" r="5.2492" fill="white" fill-opacity="0.646667"/><circle cx="498.781512" cy="795.867727" r="9.098533" fill="white" fill-opacity="0.866988"/><circle cx="451.859687" cy="379.313807" r="9.119874" fill="white" fill-opacity="0.866988"/><circle cx="716.116785" cy="734.867514" r="9.502469" fill="white" fill-opacity="0.866988"/><circle cx="661.13703" cy="635.632667" r="8.367307" fill="white" fill-opacity="0.96"/></g></svg>
